<svg height="512pt" viewBox="0 -53 512.02133 512" width="512pt" xmlns="http://www.w3.org/2000/svg"><path d="m473.601562 182.835938-79.789062-87.679688c-11.734375-11.730469-30.933594-11.730469-42.664062 0-4.054688 4.054688-6.828126 8.960938-8.535157 18.988281-.214843.851563-.214843 1.492188-.214843 2.347657 0 7.679687 2.773437 15.359374 8.75 21.332031l-21.335938-21.332031c-11.734375-11.734376-30.933594-11.734376-42.664062 0-4.269532 4.265624-7.042969 9.386718-8.535157 19.199218-.214843.640625-.214843 1.492188-.214843 2.132813 0 7.679687 2.773437 15.359375 8.75 21.332031l-21.335938-21.332031c-11.734375-11.734375-30.933594-11.734375-42.664062 0-4.054688 4.054687-6.828126 8.960937-8.535157 18.988281-.214843.851562-.214843 1.492188-.214843 2.34375 0 7.679688 2.773437 15.359375 8.75 21.335938l-64-64c-11.734376-10.882813-30.296876-10.667969-41.816407.851562-5.972656 5.972656-8.746093 13.652344-8.746093 21.332031 0 7.679688 2.773437 15.363281 8.746093 21.335938l160 160-107.09375 16.851562c-18.132812 2.5625-31.570312 18.132813-31.570312 36.480469 0 11.734375 9.597656 21.332031 21.332031 21.332031h201.171875c28.375 0 55.46875-11.304687 75.308594-31.144531l33.707031-33.707031c19.839844-19.839844 31.144531-46.933594 31.144531-75.308594 0-26.453125-9.8125-52.050781-27.730469-71.679687zm0 0" fill="#ffcc80"/><path d="m361.152344 405.34375h-201.152344c-17.644531 0-32-14.355469-32-32 0-23.53125 17.558594-43.753906 40.851562-47.082031l86.101563-13.527344-145.234375-145.234375c-15.894531-15.894531-15.894531-41.75 0-57.621094 16.042969-16 41.875-16 57.746094-.128906l37.804687 37.800781c1.878907-6.292969 5.289063-12.242187 10.261719-17.214843 14.335938-14.355469 38.144531-15.636719 53.652344-3.734376 1.835937-6.464843 5.292968-12.542968 10.347656-17.597656 14.355469-14.378906 38.1875-15.617187 53.695312-3.714844 1.792969-6.484374 5.25-12.5625 10.304688-17.621093 15.636719-15.679688 42.410156-15.507813 57.75-.125l80.234375 88.125c19.667969 21.632812 30.503906 49.644531 30.503906 78.871093 0 31.296876-12.179687 60.734376-34.324219 82.859376l-33.535156 33.554687c-22.230468 22.1875-51.691406 34.390625-83.007812 34.390625zm-222.484375-286.207031c-4.972657 0-9.941407 1.898437-13.738281 5.675781-7.683594 7.699219-7.683594 20.007812-.128907 27.582031l160.0625 160.0625c2.839844 2.839844 3.839844 7.042969 2.601563 10.839844-1.257813 3.816406-4.519532 6.613281-8.488282 7.230469l-106.988281 16.8125c-12.96875 1.875-22.65625 13.035156-22.65625 26.003906 0 5.886719 4.800781 10.667969 10.667969 10.667969h201.152344c25.621094 0 49.75-9.984375 67.902344-28.117188l33.539062-33.558593c18.089844-18.113282 28.074219-42.199219 28.074219-67.777344 0-23.914063-8.855469-46.804688-24.960938-64.511719l-79.871093-87.785156c-6.636719-6.613281-19.777344-6.976563-27.117188.363281-7.550781 7.574219-7.65625 19.625-.445312 27.21875l1.277343 1.28125c4.160157 4.160156 4.160157 10.902344.023438 15.0625-4.054688 4.09375-10.644531 4.179688-14.847657.277344 0 0 0 0-.023437 0h-.019531s0 .042968-.023438-.023438c0 0 0 0-.019531-.019531-.023437 0-.023437-.023437-.023437-.023437s-.019532 0-.019532-.019532c0 .019532-.023437 0-.023437-.023437 0 0 .214843.066406-.039063-.019531 0 0-.023437-.019532-.023437-.019532-.019531 0-.019531-.023437-.042969-.042968l-22.269531-22.316407c-7.339844-7.339843-20.121094-7.339843-27.457031 0-7.574219 7.59375-7.660157 19.734375-.386719 27.328125l22.53125 22.507813c4.160156 4.160156 4.160156 10.921875 0 15.082031-4.160157 4.160156-10.925781 4.160156-15.085938 0l-22.269531-22.25c-.128906-.109375-.234375-.234375-.363281-.363281l-20.96875-20.972657c-7.339844-7.335937-20.121094-7.335937-27.457031 0-7.554688 7.554688-7.660157 19.605469-.46875 27.222657l43.964843 43.96875c4.160157 4.160156 4.160157 10.921875 0 15.082031-4.160156 4.160156-10.921875 4.160156-15.082031 0l-43.605469-43.582031c-.167969-.171875-.363281-.34375-.511719-.515625l-62.632812-62.632813c-3.796875-3.796875-8.769531-5.695312-13.738281-5.695312zm0 0"/><path d="m103.660156 227.019531c-1.472656 0-2.96875-.300781-4.394531-.941406-34.371094-15.550781-56.597656-49.855469-56.597656-87.402344 0-52.925781 43.070312-96 96-96 37.566406 0 71.847656 22.230469 87.402343 56.621094 2.410157 5.355469.019532 11.691406-5.335937 14.101563-5.394531 2.410156-11.6875.042968-14.121094-5.335938-12.097656-26.75-38.761719-44.050781-67.945312-44.050781-41.175781 0-74.667969 33.492187-74.667969 74.664062 0 29.1875 17.300781 55.851563 44.054688 67.949219 5.375 2.429688 7.742187 8.746094 5.332031 14.121094-1.792969 3.925781-5.652344 6.273437-9.726563 6.273437zm0 0"/><path d="m105.769531 272.90625c-.894531 0-1.8125-.105469-2.730469-.363281-60.671874-16.105469-103.039062-71.167969-103.039062-133.867188 0-76.457031 62.207031-138.6640622 138.667969-138.6640622 62.699219 0 117.757812 42.3671872 133.867187 103.0195312 1.492188 5.695312-1.878906 11.539062-7.554687 13.054688-5.84375 1.515624-11.539063-1.898438-13.054688-7.574219-13.632812-51.328125-60.222656-87.167969-113.257812-87.167969-64.683594 0-117.335938 52.628906-117.335938 117.332031 0 53.058594 35.863281 99.628907 87.167969 113.261719 5.71875 1.511719 9.089844 7.359375 7.574219 13.054688-1.257813 4.777343-5.566407 7.914062-10.304688 7.914062zm0 0"/></svg>