<svg xmlns="http://www.w3.org/2000/svg" viewBox="0 0 512.002 512.002">
  <circle cx="256.001" cy="256" r="256" fill="#4376b1"/>
  <path fill="#369" d="M511.016 233.634L394.729 117.198c-71.035 9.237-145.27 7.859-216.305 9.511-29.306 0-58.613 13.791-53.441 46.545 10.343 65.508 15.515 129.293 3.448 196.525-1.9 8.545-5.897 17.089-11.117 25.059L233.48 511.005c7.421.646 14.929.996 22.519.996 141.384 0 256-114.616 256-256 .002-7.54-.343-14.996-.983-22.367z"/>
  <path fill="#fff" d="M376.023 109.468H135.979c-14.643 0-26.51 11.867-26.51 26.51V376.02c0 14.639 11.867 26.51 26.51 26.51h240.042c14.639 0 26.51-11.871 26.51-26.51V135.978c.002-14.643-11.869-26.51-26.508-26.51zM200.155 362.517c0 4.263-3.453 7.716-7.716 7.716h-32.837c-4.263 0-7.716-3.455-7.716-7.716V224.856c0-4.263 3.455-7.716 7.716-7.716h32.839c4.263 0 7.716 3.455 7.716 7.716v137.661h-.002zM176.02 204.162c-17.23 0-31.196-13.969-31.196-31.201 0-17.229 13.965-31.196 31.196-31.196 17.232 0 31.198 13.969 31.198 31.196 0 17.234-13.967 31.201-31.198 31.201zm195.753 158.977c0 3.918-3.175 7.096-7.09 7.096h-35.242c-3.915 0-7.092-3.177-7.092-7.096v-64.574c0-9.63 2.826-42.21-25.172-42.21-21.719 0-26.124 22.3-27.008 32.304v74.478c0 3.918-3.175 7.096-7.094 7.096h-34.082c-3.918 0-7.096-3.177-7.096-7.096V224.234c0-3.918 3.177-7.096 7.096-7.096h34.082c3.918 0 7.094 3.177 7.094 7.096v12.009c8.054-12.085 20.023-21.416 45.502-21.416 56.425 0 56.105 52.717 56.105 81.686v66.627h-.003z"/>
  <path fill="#d1d1d1" d="M376.023 109.468H255.427v107.67h7.647c3.918 0 7.094 3.177 7.094 7.096v12.009c8.054-12.085 20.023-21.416 45.503-21.416 56.425 0 56.105 52.717 56.105 81.686v66.625c0 3.918-3.175 7.096-7.09 7.096h-35.242c-3.915 0-7.092-3.177-7.092-7.096v-64.574c0-9.63 2.826-42.21-25.172-42.21-21.719 0-26.124 22.3-27.008 32.304v74.478c0 3.918-3.175 7.096-7.094 7.096h-7.647v32.301h120.596c14.639 0 26.51-11.871 26.51-26.51V135.978c-.004-14.643-11.875-26.51-26.514-26.51z"/>
</svg>
