<svg width="1527" height="1527" xmlns="http://www.w3.org/2000/svg" style="margin-left:auto;margin-right:auto" display="block"><defs><style>.g0_1{fill:#39c3e3}.g2_1{fill:#e3c5a8}</style></defs><path d="M858.6 1199.6v114.6H692.3v-114.6h-95.9v114.6h-181v213.6h719.5v-213.6H954.5v-114.6z" fill="#3f62ad"/><path d="M943.3 767.6V434.7H605.1v332.9h-85.7v90.7h1v85.6h85v168.3h341.4V943.9h82.7V767.6zM691.9 1112.3v86.8h-.9v328.7h85v-213.6h83.1v-201.9z" class="g2_1"/><path d="M1029.5 854.7H520.4v89.2h85v168.3h341.4V943.9h82.7z" fill="#c6ad97"/><path d="M859.1 1028.6H693v-85.8h166.1v85.8z" fill="#eea3ad"/><path d="M859.1 1200.3H691.9v-88h167.2v88z" fill="#dcb99b"/><path d="M1116.3 252.8H693v89.4h-86.8v91.5h-86.8v333.9h86.8V434.2h336.5v333.4h86.8V344.9h86.8z" fill="#f5ed30"/><path d="M689 675.1h-82.8v92.5H689v-92.5zM942.1 675.1h-82.8v92.5h82.8v-92.5z" class="g0_1"/><path d="M859.3 675.1h-82.9v183.2h82.9V675.1z" fill="#fff" fill-opacity=".19999701"/></svg>