<svg xmlns="http://www.w3.org/2000/svg" viewBox="0 0 474.006 474.006">
  <circle cx="237.003" cy="237.003" r="237.003" fill="#13b3ca"/>
  <path fill="#10abb6" d="M404.567 69.421c92.545 92.541 92.552 242.59-.004 335.142-92.545 92.549-242.601 92.549-335.142.007L404.567 69.421z"/>
  <path fill="#0ea2a4" d="M471.821 268.565l-64.048-64.048-5.28 5.276-80.684-80.68-4.183 4.18-9.684-9.684-11.831 11.831-9.586-9.583-15.42 15.416 18.817 18.814-72.257 72.265-70.42-70.412-15.416 15.412 20.295 20.292-14.282 14.279 23.3 23.3-10.271 10.271 28.385 28.389-4.632 4.636 26.054 26.058-30.604 30.608-22.799-22.795-22.02 22.02-27.322-27.326-5.493 5.497 160.787 160.787c112.766-7.642 203.844-94.126 218.594-204.803z"/>
  <path fill="#fff" d="M370.487 226.792c18.941-1.56 31.783-10.174 36.729-21.856-6.836 4.198-28.044 8.774-39.756 4.412-.572-2.746-1.212-5.366-1.841-7.719-8.924-32.774-39.479-59.168-71.494-55.984 2.589-1.044 5.224-2.021 7.839-2.892 3.521-1.265 24.198-4.632 20.946-11.929-2.746-6.417-28.007 4.853-32.763 6.327 6.279-2.361 16.662-6.425 17.77-13.639-9.62 1.317-19.061 5.867-26.353 12.483 2.63-2.84 4.629-6.294 5.055-10.013-25.665 16.389-40.654 49.432-52.778 81.488-9.523-9.227-17.964-16.497-25.541-20.531-21.242-11.397-46.641-23.285-86.513-38.084-1.224 13.19 6.522 30.735 28.845 42.398-4.838-.647-13.672.801-20.756 2.492 2.885 15.113 12.288 27.562 37.773 33.586-11.644.767-17.661 3.416-23.113 9.126 5.295 10.511 18.237 22.881 41.504 20.34-25.867 11.15-10.541 31.812 10.514 28.729-35.921 37.103-92.556 34.379-125.076 3.349 84.908 115.699 269.485 68.422 296.98-43.019 20.61.172 32.725-7.139 40.235-15.199-11.876 2.017-29.084-.064-38.206-3.865z"/>
</svg>
