<?xml version="1.0" standalone="no"?>
<!DOCTYPE svg PUBLIC "-//W3C//DTD SVG 20010904//EN"
 "http://www.w3.org/TR/2001/REC-SVG-20010904/DTD/svg10.dtd">
<svg version="1.0" xmlns="http://www.w3.org/2000/svg"
 width="700.000000pt" height="700.000000pt" viewBox="0 0 700.000000 700.000000"
 preserveAspectRatio="xMidYMid meet">
<metadata>
Created by potrace 1.11, written by Peter Selinger 2001-2013
</metadata>
<g transform="translate(0.000000,700.000000) scale(0.100000,-0.100000)"
fill="#000000" stroke="none">
<path d="M3218 5842 c-21 -2 -38 -9 -39 -15 0 -7 -1 -99 -1 -204 l-1 -193
-198 0 -199 0 0 -210 0 -210 -182 1 c-101 0 -191 0 -201 -1 -17 0 -18 -50 -16
-1170 l1 -1170 194 0 c148 0 194 -3 195 -12 0 -7 0 -181 1 -385 l0 -373 199 0
199 0 0 -200 0 -200 -218 0 -218 0 0 -260 c1 -224 -1 -260 -14 -261 -8 -1
-195 -2 -415 -3 l-400 -1 0 -485 0 -485 1644 -3 c977 -1 1647 2 1650 7 8 12 6
945 -2 957 -3 6 -166 10 -407 9 -259 0 -404 3 -408 10 -4 5 -7 123 -7 260 l0
250 -217 3 -218 2 0 200 0 200 200 0 200 0 0 385 0 385 190 0 190 0 0 1375 0
1375 198 0 199 0 0 210 c0 206 -1 210 -21 210 -142 3 -1851 4 -1878 2z"/>
</g>
</svg>
